<mxfile host="www.draw.io" modified="2019-11-27T15:24:30.798Z" agent="Mozilla/5.0 (Windows NT 10.0; Win64; x64) AppleWebKit/537.36 (KHTML, like Gecko) Chrome/78.0.3904.108 Safari/537.36" etag="Jx6yuAUM1pHcT_IazDdP" version="12.3.2" type="github" pages="1">
  <diagram id="FouWLgtlSUG5DKVr-rDy" name="Page-1">
    <mxGraphModel dx="2249" dy="1997" grid="1" gridSize="10" guides="1" tooltips="1" connect="1" arrows="1" fold="1" page="1" pageScale="1" pageWidth="827" pageHeight="1169" math="0" shadow="0">
      <root>
        <mxCell id="0"/>
        <mxCell id="1" parent="0"/>
        <mxCell id="3k9kEkEvaYHRTMak4VFo-40" value="" style="rounded=1;arcSize=10;dashed=1;strokeColor=#000000;fillColor=none;gradientColor=none;dashPattern=8 3 1 3;strokeWidth=2;" vertex="1" parent="1">
          <mxGeometry x="380" y="-45" width="550" height="400" as="geometry"/>
        </mxCell>
        <mxCell id="3k9kEkEvaYHRTMak4VFo-1" value="API Gateway" style="rounded=0;whiteSpace=wrap;html=1;fillColor=#f5f5f5;strokeColor=#666666;fontColor=#333333;" vertex="1" parent="1">
          <mxGeometry x="70" y="20" width="120" height="60" as="geometry"/>
        </mxCell>
        <mxCell id="3k9kEkEvaYHRTMak4VFo-2" value="&lt;b&gt;Service Security&lt;/b&gt;" style="rounded=0;whiteSpace=wrap;html=1;fillColor=#dae8fc;strokeColor=#6c8ebf;" vertex="1" parent="1">
          <mxGeometry x="70" y="120" width="120" height="60" as="geometry"/>
        </mxCell>
        <mxCell id="3k9kEkEvaYHRTMak4VFo-3" value="&lt;b&gt;UI Interface&lt;/b&gt;" style="rounded=0;whiteSpace=wrap;html=1;fillColor=#fff2cc;strokeColor=#d6b656;" vertex="1" parent="1">
          <mxGeometry x="70" y="270" width="120" height="60" as="geometry"/>
        </mxCell>
        <mxCell id="3k9kEkEvaYHRTMak4VFo-5" value="Transport Order card(with edit mode)" style="rounded=0;whiteSpace=wrap;html=1;" vertex="1" parent="1">
          <mxGeometry x="-210" y="390" width="120" height="60" as="geometry"/>
        </mxCell>
        <mxCell id="3k9kEkEvaYHRTMak4VFo-13" value="" style="edgeStyle=orthogonalEdgeStyle;rounded=0;orthogonalLoop=1;jettySize=auto;html=1;exitX=0.25;exitY=1;exitDx=0;exitDy=0;" edge="1" parent="1" source="3k9kEkEvaYHRTMak4VFo-3" target="3k9kEkEvaYHRTMak4VFo-6">
          <mxGeometry relative="1" as="geometry">
            <mxPoint x="10" y="290" as="targetPoint"/>
          </mxGeometry>
        </mxCell>
        <mxCell id="3k9kEkEvaYHRTMak4VFo-6" value="Transport Order List" style="rounded=0;whiteSpace=wrap;html=1;" vertex="1" parent="1">
          <mxGeometry x="-70" y="410" width="120" height="60" as="geometry"/>
        </mxCell>
        <mxCell id="3k9kEkEvaYHRTMak4VFo-7" value="Login&amp;nbsp;" style="rounded=0;whiteSpace=wrap;html=1;" vertex="1" parent="1">
          <mxGeometry x="110" y="400" width="120" height="60" as="geometry"/>
        </mxCell>
        <mxCell id="3k9kEkEvaYHRTMak4VFo-8" value="Import(Upload) List" style="rounded=0;whiteSpace=wrap;html=1;" vertex="1" parent="1">
          <mxGeometry x="-290" y="170" width="120" height="60" as="geometry"/>
        </mxCell>
        <mxCell id="3k9kEkEvaYHRTMak4VFo-9" value="Import(Upload)" style="rounded=0;whiteSpace=wrap;html=1;" vertex="1" parent="1">
          <mxGeometry x="-130" y="160" width="120" height="60" as="geometry"/>
        </mxCell>
        <mxCell id="3k9kEkEvaYHRTMak4VFo-10" value="" style="endArrow=classic;html=1;exitX=0;exitY=0.5;exitDx=0;exitDy=0;entryX=1;entryY=0.5;entryDx=0;entryDy=0;" edge="1" parent="1" source="3k9kEkEvaYHRTMak4VFo-3" target="3k9kEkEvaYHRTMak4VFo-9">
          <mxGeometry width="50" height="50" relative="1" as="geometry">
            <mxPoint x="10" y="310" as="sourcePoint"/>
            <mxPoint x="60" y="260" as="targetPoint"/>
            <Array as="points">
              <mxPoint x="70" y="190"/>
            </Array>
          </mxGeometry>
        </mxCell>
        <mxCell id="3k9kEkEvaYHRTMak4VFo-11" value="" style="endArrow=classic;html=1;" edge="1" parent="1" source="3k9kEkEvaYHRTMak4VFo-3" target="3k9kEkEvaYHRTMak4VFo-8">
          <mxGeometry width="50" height="50" relative="1" as="geometry">
            <mxPoint x="66" y="307" as="sourcePoint"/>
            <mxPoint x="-10" y="260" as="targetPoint"/>
            <Array as="points">
              <mxPoint x="-230" y="301"/>
            </Array>
          </mxGeometry>
        </mxCell>
        <mxCell id="3k9kEkEvaYHRTMak4VFo-15" value="" style="endArrow=classic;html=1;exitX=0.75;exitY=1;exitDx=0;exitDy=0;entryX=0.417;entryY=0;entryDx=0;entryDy=0;entryPerimeter=0;" edge="1" parent="1" source="3k9kEkEvaYHRTMak4VFo-3" target="3k9kEkEvaYHRTMak4VFo-7">
          <mxGeometry width="50" height="50" relative="1" as="geometry">
            <mxPoint x="140" y="410" as="sourcePoint"/>
            <mxPoint x="190" y="360" as="targetPoint"/>
          </mxGeometry>
        </mxCell>
        <mxCell id="3k9kEkEvaYHRTMak4VFo-16" value="" style="endArrow=classic;html=1;exitX=0;exitY=0.75;exitDx=0;exitDy=0;entryX=0.5;entryY=0;entryDx=0;entryDy=0;" edge="1" parent="1" source="3k9kEkEvaYHRTMak4VFo-3" target="3k9kEkEvaYHRTMak4VFo-5">
          <mxGeometry width="50" height="50" relative="1" as="geometry">
            <mxPoint x="-150" y="400" as="sourcePoint"/>
            <mxPoint x="-140" y="350" as="targetPoint"/>
            <Array as="points">
              <mxPoint x="70" y="340"/>
              <mxPoint x="-150" y="340"/>
            </Array>
          </mxGeometry>
        </mxCell>
        <mxCell id="3k9kEkEvaYHRTMak4VFo-19" value="" style="endArrow=block;dashed=1;endFill=0;endSize=12;html=1;exitX=0.333;exitY=1.033;exitDx=0;exitDy=0;exitPerimeter=0;entryX=0.583;entryY=0.983;entryDx=0;entryDy=0;entryPerimeter=0;" edge="1" parent="1" source="3k9kEkEvaYHRTMak4VFo-8" target="3k9kEkEvaYHRTMak4VFo-7">
          <mxGeometry width="160" relative="1" as="geometry">
            <mxPoint x="-120" y="250" as="sourcePoint"/>
            <mxPoint x="200" y="520" as="targetPoint"/>
            <Array as="points">
              <mxPoint x="-250" y="520"/>
              <mxPoint x="180" y="520"/>
            </Array>
          </mxGeometry>
        </mxCell>
        <mxCell id="3k9kEkEvaYHRTMak4VFo-20" value="" style="endArrow=block;dashed=1;endFill=0;endSize=12;html=1;exitX=1;exitY=0.5;exitDx=0;exitDy=0;entryX=1;entryY=0.5;entryDx=0;entryDy=0;" edge="1" parent="1" source="3k9kEkEvaYHRTMak4VFo-7" target="3k9kEkEvaYHRTMak4VFo-2">
          <mxGeometry width="160" relative="1" as="geometry">
            <mxPoint x="310" y="410" as="sourcePoint"/>
            <mxPoint x="380" y="120" as="targetPoint"/>
            <Array as="points">
              <mxPoint x="250" y="430"/>
              <mxPoint x="250" y="150"/>
            </Array>
          </mxGeometry>
        </mxCell>
        <mxCell id="3k9kEkEvaYHRTMak4VFo-21" value="" style="endArrow=block;dashed=1;endFill=0;endSize=12;html=1;entryX=1;entryY=0.5;entryDx=0;entryDy=0;" edge="1" parent="1" target="3k9kEkEvaYHRTMak4VFo-1">
          <mxGeometry width="160" relative="1" as="geometry">
            <mxPoint x="190" y="300" as="sourcePoint"/>
            <mxPoint x="340" y="30" as="targetPoint"/>
            <Array as="points">
              <mxPoint x="310" y="300"/>
              <mxPoint x="310" y="50"/>
            </Array>
          </mxGeometry>
        </mxCell>
        <mxCell id="3k9kEkEvaYHRTMak4VFo-22" value="1" style="text;html=1;strokeColor=none;fillColor=none;align=center;verticalAlign=middle;whiteSpace=wrap;rounded=0;" vertex="1" parent="1">
          <mxGeometry x="150" y="365" width="40" height="20" as="geometry"/>
        </mxCell>
        <mxCell id="3k9kEkEvaYHRTMak4VFo-23" value="2" style="text;html=1;strokeColor=none;fillColor=none;align=center;verticalAlign=middle;whiteSpace=wrap;rounded=0;" vertex="1" parent="1">
          <mxGeometry y="190" width="40" height="20" as="geometry"/>
        </mxCell>
        <mxCell id="3k9kEkEvaYHRTMak4VFo-24" value="3" style="text;html=1;strokeColor=none;fillColor=none;align=center;verticalAlign=middle;whiteSpace=wrap;rounded=0;" vertex="1" parent="1">
          <mxGeometry x="-240" y="250" width="40" height="20" as="geometry"/>
        </mxCell>
        <mxCell id="3k9kEkEvaYHRTMak4VFo-25" value="4" style="text;html=1;align=center;verticalAlign=middle;resizable=0;points=[];;autosize=1;" vertex="1" parent="1">
          <mxGeometry x="-10" y="375" width="20" height="20" as="geometry"/>
        </mxCell>
        <mxCell id="3k9kEkEvaYHRTMak4VFo-26" value="5" style="text;html=1;align=center;verticalAlign=middle;resizable=0;points=[];;autosize=1;" vertex="1" parent="1">
          <mxGeometry x="-150" y="355" width="20" height="20" as="geometry"/>
        </mxCell>
        <mxCell id="3k9kEkEvaYHRTMak4VFo-27" value="API Transport Order" style="rounded=0;whiteSpace=wrap;html=1;" vertex="1" parent="1">
          <mxGeometry x="460" y="15" width="120" height="60" as="geometry"/>
        </mxCell>
        <mxCell id="3k9kEkEvaYHRTMak4VFo-28" value="Database" style="rounded=0;whiteSpace=wrap;html=1;" vertex="1" parent="1">
          <mxGeometry x="700" y="15" width="120" height="60" as="geometry"/>
        </mxCell>
        <mxCell id="3k9kEkEvaYHRTMak4VFo-29" value="Import" style="rounded=0;whiteSpace=wrap;html=1;" vertex="1" parent="1">
          <mxGeometry x="460" y="135" width="120" height="60" as="geometry"/>
        </mxCell>
        <mxCell id="3k9kEkEvaYHRTMak4VFo-30" value="Transport Order&lt;br&gt;(Add DB)" style="rounded=0;whiteSpace=wrap;html=1;" vertex="1" parent="1">
          <mxGeometry x="620" y="240" width="120" height="60" as="geometry"/>
        </mxCell>
        <mxCell id="3k9kEkEvaYHRTMak4VFo-31" value="" style="endArrow=block;dashed=1;endFill=0;endSize=12;html=1;exitX=1;exitY=0.75;exitDx=0;exitDy=0;entryX=0;entryY=0.5;entryDx=0;entryDy=0;" edge="1" parent="1" source="3k9kEkEvaYHRTMak4VFo-3" target="3k9kEkEvaYHRTMak4VFo-27">
          <mxGeometry width="160" relative="1" as="geometry">
            <mxPoint x="270" y="320" as="sourcePoint"/>
            <mxPoint x="430" y="-50" as="targetPoint"/>
            <Array as="points">
              <mxPoint x="410" y="315"/>
              <mxPoint x="410" y="45"/>
            </Array>
          </mxGeometry>
        </mxCell>
        <mxCell id="3k9kEkEvaYHRTMak4VFo-32" value="" style="endArrow=classic;html=1;exitX=1;exitY=0.5;exitDx=0;exitDy=0;entryX=0;entryY=0.5;entryDx=0;entryDy=0;" edge="1" parent="1" source="3k9kEkEvaYHRTMak4VFo-27" target="3k9kEkEvaYHRTMak4VFo-28">
          <mxGeometry width="50" height="50" relative="1" as="geometry">
            <mxPoint x="620" y="120" as="sourcePoint"/>
            <mxPoint x="670" y="70" as="targetPoint"/>
          </mxGeometry>
        </mxCell>
        <mxCell id="3k9kEkEvaYHRTMak4VFo-33" value="" style="endArrow=classic;html=1;exitX=0.5;exitY=1;exitDx=0;exitDy=0;entryX=0.5;entryY=0;entryDx=0;entryDy=0;" edge="1" parent="1" source="3k9kEkEvaYHRTMak4VFo-27" target="3k9kEkEvaYHRTMak4VFo-29">
          <mxGeometry width="50" height="50" relative="1" as="geometry">
            <mxPoint x="630" y="160" as="sourcePoint"/>
            <mxPoint x="680" y="110" as="targetPoint"/>
          </mxGeometry>
        </mxCell>
        <mxCell id="3k9kEkEvaYHRTMak4VFo-34" value="&lt;b&gt;BUS&lt;/b&gt;" style="text;html=1;align=center;verticalAlign=middle;resizable=0;points=[];;autosize=1;" vertex="1" parent="1">
          <mxGeometry x="520" y="95" width="40" height="20" as="geometry"/>
        </mxCell>
        <mxCell id="3k9kEkEvaYHRTMak4VFo-36" value="" style="endArrow=classic;html=1;exitX=1;exitY=0.5;exitDx=0;exitDy=0;entryX=1;entryY=0.5;entryDx=0;entryDy=0;" edge="1" parent="1" source="3k9kEkEvaYHRTMak4VFo-28" target="3k9kEkEvaYHRTMak4VFo-30">
          <mxGeometry width="50" height="50" relative="1" as="geometry">
            <mxPoint x="830" y="200" as="sourcePoint"/>
            <mxPoint x="880" y="280" as="targetPoint"/>
            <Array as="points">
              <mxPoint x="880" y="45"/>
              <mxPoint x="880" y="270"/>
            </Array>
          </mxGeometry>
        </mxCell>
        <mxCell id="3k9kEkEvaYHRTMak4VFo-37" value="GRPC" style="text;html=1;align=center;verticalAlign=middle;resizable=0;points=[];;autosize=1;" vertex="1" parent="1">
          <mxGeometry x="827" y="150" width="50" height="20" as="geometry"/>
        </mxCell>
        <mxCell id="3k9kEkEvaYHRTMak4VFo-38" value="" style="endArrow=classic;html=1;exitX=0.5;exitY=1;exitDx=0;exitDy=0;entryX=0;entryY=0.5;entryDx=0;entryDy=0;" edge="1" parent="1" source="3k9kEkEvaYHRTMak4VFo-29" target="3k9kEkEvaYHRTMak4VFo-30">
          <mxGeometry width="50" height="50" relative="1" as="geometry">
            <mxPoint x="510" y="330" as="sourcePoint"/>
            <mxPoint x="560" y="280" as="targetPoint"/>
            <Array as="points">
              <mxPoint x="520" y="270"/>
            </Array>
          </mxGeometry>
        </mxCell>
        <mxCell id="3k9kEkEvaYHRTMak4VFo-39" value="&lt;b&gt;BUS&lt;/b&gt;" style="text;html=1;" vertex="1" parent="1">
          <mxGeometry x="530" y="245" width="50" height="30" as="geometry"/>
        </mxCell>
        <mxCell id="3k9kEkEvaYHRTMak4VFo-41" value="" style="rounded=1;arcSize=10;dashed=1;strokeColor=#000000;fillColor=none;gradientColor=none;dashPattern=8 3 1 3;strokeWidth=2;" vertex="1" parent="1">
          <mxGeometry x="-310" y="-40" width="650" height="620" as="geometry"/>
        </mxCell>
        <mxCell id="3k9kEkEvaYHRTMak4VFo-42" value="&lt;font style=&quot;font-size: 14px&quot; color=&quot;#004c99&quot;&gt;&lt;b&gt;&lt;i&gt;Transport Order Module&lt;/i&gt;&lt;/b&gt;&lt;/font&gt;" style="text;html=1;" vertex="1" parent="1">
          <mxGeometry x="570" y="-35" width="170" height="30" as="geometry"/>
        </mxCell>
      </root>
    </mxGraphModel>
  </diagram>
</mxfile>
